<?xml version="1.0" encoding="UTF-8"?>
<svg xmlns="http://www.w3.org/2000/svg" version="1.1" xmlns:xlink="http://www.w3.org/1999/xlink" viewBox="0 0 425.2 425.2">
  <defs>
    <style>
      .cls-1 {
        fill: #fff;
      }

      .cls-2 {
        fill: #d52c2f;
      }

      .cls-3 {
        fill: url(#_未命名的渐变_7);
      }

      .cls-4 {
        fill: #33561e;
      }

      .cls-5 {
        fill: #8e1b16;
      }

      .cls-6 {
        fill: #81c427;
      }
    </style>
    <linearGradient id="_未命名的渐变_7" data-name="未命名的渐变 7" x1="212.6" y1="42.52" x2="212.6" y2="382.68" gradientUnits="userSpaceOnUse">
      <stop offset="0" stop-color="#42a1d9"/>
      <stop offset="1" stop-color="#2e72bb"/>
    </linearGradient>
  </defs>
  <!-- Generator: Adobe Illustrator 28.7.1, SVG Export Plug-In . SVG Version: 1.2.0 Build 142)  -->
  <g>
    <g id="_图层_1" data-name="图层_1">
      <g>
        <rect class="cls-3" x="42.52" y="42.52" width="340.16" height="340.16" rx="75.84" ry="75.84"/>
        <g>
          <path class="cls-4" d="M186,104.82s-4.03-7.26-3.69-11.06,6.33-8.06,10.71-5.87,5.87,10.94,5.53,16.93c0,0,5.3,4.15,20.04,25.11,14.74,20.96,33.17,47.33,33.17,47.33l-7.95,1.73s-13.47-20.27-27.41-38.81-20.5-24.88-23.84-28.56c0,0-4.72,20.73-9.33,34.09-4.61,13.36-13.13,38.23-13.36,43.76s-9.79-.46-9.1-2.42.58,3.69,7.83-18.89,16.24-53.78,17.39-63.34Z"/>
          <path class="cls-4" d="M209.37,119.22s-2.19-13.24,5.53-23.49c7.72-10.25,25.11-20.84,44.34-20.61s25.22,2.42,25.22,2.42c0,0-8.06,21.54-18.31,30.17-10.25,8.64-23.95,16.01-40.54,14.17-16.58-1.84-16.24-2.65-16.24-2.65Z"/>
          <path class="cls-6" d="M216.51,111.39s.92-18.54,20.5-25.8c19.58-7.26,39.39-3.69,39.39-3.69,0,0-12.08,21.61-23.84,28.45-13.47,7.83-20.38,7.6-31.55,5.07,0,0,17.39-18.2,30.75-22.57,0,0-12.44,1.38-35.24,18.54Z"/>
          <path class="cls-5" d="M238.88,176.86c10.08,3.25,17.6-8.12,31.19-8.12s26.14,11.63,30.86,28.68-.58,62.53-42.15,69.44c-41.57,6.91-56.66-32.71-57.81-42.5s-6.83-35.82,5.28-45.03c12.11-9.21,19.04-6.85,32.63-2.47Z"/>
          <path class="cls-2" d="M244.38,185.67c11.55.74,13.47-7.95,23.95-8.53s23.61,5.53,26.26,30.52c2.65,24.99-13.24,48.48-36.74,52.4-23.49,3.92-43.53-13.47-47.91-30.63-4.38-17.16-10.13-37.86,2.19-44.84s17.85.16,32.25,1.08Z"/>
          <path class="cls-1" d="M233.44,188.66c.56,1.76-5.53,3.34-9.1,7.6s-4.84,11.4-6.22,11.4-6.22-3.34-7.37-9.5,4.26-12.07,8.87-13.26,13.01,1.23,13.82,3.76Z"/>
          <g>
            <path class="cls-5" d="M159.28,183.48c6.43,3.97,7.95,5.87,15.55,4.23s15.2-6.05,24.96-.43c9.76,5.61,14.08,16.47,13.62,29.48-.46,13.01-7.26,43.19-38.12,51.71-30.86,8.52-54.47-12.9-60.92-34.2-6.45-21.31-.23-42.73,14.28-52.63s26.48-.72,30.63,1.84Z"/>
            <path class="cls-2" d="M162.96,195.8c8.98,2.3,14.97-1.38,19.35-2.76s13.01-3.45,19.35,8.18c6.33,11.63,5.64,43.53-18.77,56.43s-47.8.56-55.51-12.78c-8.38-14.51-13.59-34.2-1.96-50.44,11.63-16.24,25.45-7.19,26.95-5.32s10.6,6.7,10.6,6.7Z"/>
            <path class="cls-1" d="M146.72,192.35c0,1.38-7.49,4.84-10.36,11.63s-2.53,12.67-3.69,13.36-11.63.58-9.21-10.02c2.42-10.6,9.9-17.04,14.63-17.97s8.64.81,8.64,2.99Z"/>
          </g>
          <g>
            <path class="cls-1" d="M91.51,281.45h10.77v21.26h20.38v-21.26h10.7v53.94h-10.7v-23.29h-20.38v23.29h-10.77v-53.94Z"/>
            <path class="cls-1" d="M143.04,328.55l6.19-7.42c3.86,3.57,8.95,5.97,13.68,5.97,5.6,0,8.59-2.4,8.59-6.19,0-4-3.28-5.24-8.08-7.28l-7.21-3.06c-5.46-2.26-10.92-6.62-10.92-14.49,0-8.81,7.72-15.58,18.63-15.58,6.26,0,12.52,2.47,16.89,6.92l-5.46,6.77c-3.42-2.84-6.99-4.44-11.43-4.44-4.73,0-7.72,2.11-7.72,5.68,0,3.86,3.79,5.24,8.37,7.06l7.06,2.99c6.55,2.69,10.85,6.84,10.85,14.63,0,8.81-7.35,16.31-19.8,16.31-7.21,0-14.41-2.84-19.65-7.86Z"/>
            <path class="cls-1" d="M192.03,281.45h10.77v44.91h21.91v9.03h-32.68v-53.94Z"/>
            <path class="cls-1" d="M232.36,282.18c0-3.49,2.55-5.82,6.26-5.82s6.19,2.33,6.19,5.82-2.55,5.9-6.19,5.9-6.26-2.33-6.26-5.9ZM233.24,294.63h10.7v40.76h-10.7v-40.76Z"/>
            <path class="cls-1" d="M255.36,294.63h8.74l.8,5.39h.22c3.57-3.49,7.72-6.41,13.25-6.41,8.81,0,12.59,6.11,12.59,16.38v25.4h-10.7v-24.09c0-6.33-1.75-8.52-5.75-8.52-3.35,0-5.46,1.6-8.44,4.59v28.02h-10.7v-40.76Z"/>
            <path class="cls-1" d="M302.03,277.3h10.41v34.94h.36l14.05-17.62h11.65l-14.12,16.67,15.43,24.09h-11.57l-9.9-16.89-5.9,6.7v10.19h-10.41v-58.09Z"/>
          </g>
        </g>
      </g>
    </g>
  </g>
</svg>